<svg xmlns="http://www.w3.org/2000/svg" viewBox="0 0 620 430"><rect x="44" y="20" width="532" height="410" rx="22" fill="#fff"/><rect x="44" y="20" width="205" height="410" rx="22" fill="#25223a"/><path d="M44 335c61-54 130-7 205-91v186H44z" fill="#6253d7" opacity=".8"/><circle cx="146" cy="149" r="35" fill="#6f60e8"/><path d="M132 150l10 10 20-23" fill="none" stroke="#fff" stroke-width="6" stroke-linecap="round" stroke-linejoin="round"/><text x="95" y="216" fill="#fff" font-size="17" font-family="Arial" font-weight="700">Secure access</text><text x="80" y="240" fill="#b9b4d3" font-size="10" font-family="Arial">Protected. Private. Reliable.</text><text x="295" y="105" fill="#27243b" font-size="23" font-family="Arial" font-weight="700">Welcome back</text><text x="295" y="129" fill="#9691a8" font-size="10" font-family="Arial">Sign in to your account</text><text x="295" y="174" fill="#625e70" font-size="10" font-family="Arial">EMAIL ADDRESS</text><rect x="295" y="185" width="226" height="42" rx="9" fill="#f6f5f8"/><text x="312" y="211" fill="#aaa6b4" font-size="10" font-family="Arial">pablo@example.com</text><text x="295" y="257" fill="#625e70" font-size="10" font-family="Arial">PASSWORD</text><rect x="295" y="268" width="226" height="42" rx="9" fill="#f6f5f8"/><g fill="#aaa6b4"><circle cx="315" cy="289" r="2.5"/><circle cx="324" cy="289" r="2.5"/><circle cx="333" cy="289" r="2.5"/><circle cx="342" cy="289" r="2.5"/><circle cx="351" cy="289" r="2.5"/></g><rect x="295" y="335" width="226" height="45" rx="10" fill="#6253d7"/><text x="408" y="362" text-anchor="middle" fill="#fff" font-size="11" font-family="Arial" font-weight="700">Sign in securely</text></svg>
