<svg xmlns="http://www.w3.org/2000/svg" viewBox="0 0 760 430"><defs><filter id="s" x="-30%" y="-30%" width="160%" height="180%"><feDropShadow dx="0" dy="20" stdDeviation="18" flood-opacity=".18"/></filter></defs><g filter="url(#s)"><rect x="250" y="24" width="260" height="390" rx="34" fill="#fff"/><rect x="270" y="45" width="220" height="88" rx="20" fill="#f5f7f8"/><text x="467" y="106" text-anchor="end" fill="#151719" font-family="Arial" font-size="39" font-weight="600">1 024</text><g font-family="Arial" font-size="18" font-weight="700" text-anchor="middle"><g fill="#f1f3f5"><rect x="270" y="151" width="47" height="47" rx="15"/><rect x="327" y="151" width="47" height="47" rx="15"/><rect x="384" y="151" width="47" height="47" rx="15"/><rect x="270" y="208" width="47" height="47" rx="15"/><rect x="327" y="208" width="47" height="47" rx="15"/><rect x="384" y="208" width="47" height="47" rx="15"/><rect x="270" y="265" width="47" height="47" rx="15"/><rect x="327" y="265" width="47" height="47" rx="15"/><rect x="384" y="265" width="47" height="47" rx="15"/><rect x="270" y="322" width="104" height="47" rx="15"/><rect x="384" y="322" width="47" height="47" rx="15"/></g><g fill="#e4f2ff"><rect x="441" y="151" width="49" height="47" rx="15"/><rect x="441" y="208" width="49" height="47" rx="15"/></g><rect x="441" y="265" width="49" height="104" rx="15" fill="#1988ed"/><g fill="#222"><text x="294" y="181">7</text><text x="351" y="181">8</text><text x="408" y="181">9</text><text x="294" y="238">4</text><text x="351" y="238">5</text><text x="408" y="238">6</text><text x="294" y="295">1</text><text x="351" y="295">2</text><text x="408" y="295">3</text><text x="322" y="352">0</text><text x="408" y="352">.</text></g><g fill="#0874d5"><text x="465" y="181">÷</text><text x="465" y="238">×</text></g><text x="465" y="325" fill="#fff">=</text></g></g></svg>
