<svg xmlns="http://www.w3.org/2000/svg" viewBox="0 0 620 430"><rect x="34" y="28" width="552" height="390" rx="16" fill="#fff"/><rect x="34" y="28" width="552" height="40" rx="16" fill="#f7f8fa"/><circle cx="58" cy="48" r="5" fill="#ff6258"/><circle cx="75" cy="48" r="5" fill="#ffbe2e"/><circle cx="92" cy="48" r="5" fill="#28c940"/><rect x="34" y="68" width="150" height="350" fill="#252a35"/><text x="59" y="108" fill="#fff" font-size="15" font-family="Arial" font-weight="700">Flowdesk</text><g fill="#7f899e"><rect x="59" y="145" width="75" height="8" rx="4"/><rect x="59" y="180" width="92" height="8" rx="4"/><rect x="59" y="215" width="64" height="8" rx="4"/></g><text x="216" y="111" fill="#252a35" font-size="19" font-family="Arial" font-weight="700">Workspace</text><rect x="216" y="140" width="155" height="105" rx="13" fill="#fff2e5"/><rect x="389" y="140" width="155" height="105" rx="13" fill="#edf5ff"/><circle cx="245" cy="170" r="13" fill="#ff9c42"/><circle cx="418" cy="170" r="13" fill="#5599e8"/><rect x="236" y="202" width="105" height="8" rx="4" fill="#d9bda5"/><rect x="409" y="202" width="105" height="8" rx="4" fill="#b8cce3"/><rect x="216" y="270" width="328" height="105" rx="13" fill="#f7f8fa"/><text x="238" y="304" fill="#252a35" font-size="11" font-family="Arial" font-weight="700">Recent activity</text><g fill="#d9dde4"><rect x="238" y="325" width="278" height="7" rx="3.5"/><rect x="238" y="348" width="235" height="7" rx="3.5"/></g></svg>
