<svg xmlns="http://www.w3.org/2000/svg" viewBox="0 0 760 430"><rect x="28" y="25" width="704" height="405" rx="18" fill="#10151d"/><rect x="28" y="25" width="704" height="42" rx="18" fill="#1a222e"/><circle cx="53" cy="46" r="5" fill="#ff6258"/><circle cx="70" cy="46" r="5" fill="#ffbe2e"/><circle cx="87" cy="46" r="5" fill="#28c940"/><text x="380" y="50" text-anchor="middle" fill="#76849a" font-size="10" font-family="Arial">Native Inspector</text><rect x="28" y="67" width="180" height="363" fill="#141b25"/><text x="50" y="99" fill="#e3e9f2" font-size="11" font-family="Arial" font-weight="700">PROCESSES</text><g fill="#536176"><rect x="50" y="127" width="125" height="7" rx="3"/><rect x="50" y="155" width="105" height="7" rx="3"/><rect x="50" y="183" width="132" height="7" rx="3"/><rect x="50" y="211" width="92" height="7" rx="3"/></g><rect x="45" y="237" width="145" height="34" rx="7" fill="#1f74e8"/><text x="59" y="258" fill="#fff" font-size="9" font-family="Arial">target_application.exe</text><text x="236" y="102" fill="#e3e9f2" font-size="16" font-family="Arial" font-weight="700">Runtime analysis</text><text x="236" y="126" fill="#75839a" font-size="9" font-family="Arial">Live module and memory inspection</text><rect x="236" y="155" width="224" height="113" rx="11" fill="#161e29" stroke="#263243"/><text x="253" y="181" fill="#708096" font-size="9" font-family="Arial">MEMORY USAGE</text><path d="M253 238c22-11 36-48 58-32s35 26 55-4 46-5 76-32" fill="none" stroke="#4b9cff" stroke-width="3"/><rect x="478" y="155" width="224" height="113" rx="11" fill="#161e29" stroke="#263243"/><text x="495" y="181" fill="#708096" font-size="9" font-family="Arial">MODULES</text><text x="495" y="225" fill="#e3e9f2" font-size="28" font-family="Arial" font-weight="700">24</text><circle cx="659" cy="218" r="22" fill="none" stroke="#27364a" stroke-width="8"/><path d="M659 196a22 22 0 0 1 20 31" fill="none" stroke="#8c6fff" stroke-width="8"/><rect x="236" y="290" width="466" height="105" rx="11" fill="#161e29" stroke="#263243"/><text x="253" y="317" fill="#708096" font-size="9" font-family="Arial">DEBUG OUTPUT</text><text x="253" y="344" fill="#58d68d" font-size="10" font-family="monospace">[OK] Interface initialized successfully</text><text x="253" y="366" fill="#4b9cff" font-size="10" font-family="monospace">[INFO] 24 modules mapped · 0 errors</text></svg>
