<svg xmlns="http://www.w3.org/2000/svg" viewBox="0 0 760 430"><rect x="30" y="20" width="700" height="410" rx="20" fill="#fff"/><rect x="30" y="20" width="700" height="44" rx="20" fill="#f8fafc"/><circle cx="56" cy="42" r="5" fill="#ff6258"/><circle cx="73" cy="42" r="5" fill="#ffbe2e"/><circle cx="90" cy="42" r="5" fill="#28c940"/><rect x="30" y="64" width="135" height="366" fill="#172035"/><circle cx="68" cy="101" r="18" fill="#3f8cff"/><text x="96" y="107" fill="#fff" font-size="14" font-family="Arial" font-weight="700">Campus</text><g fill="#71809d"><rect x="55" y="145" width="77" height="8" rx="4"/><rect x="55" y="181" width="65" height="8" rx="4"/><rect x="55" y="217" width="73" height="8" rx="4"/><rect x="55" y="253" width="55" height="8" rx="4"/></g><text x="195" y="107" fill="#172035" font-size="20" font-family="Arial" font-weight="700">Good morning, Pablo</text><text x="195" y="131" fill="#8a94a6" font-size="11" font-family="Arial">Here is today's academic overview.</text><g><rect x="195" y="158" width="155" height="92" rx="13" fill="#f2f6ff"/><rect x="367" y="158" width="155" height="92" rx="13" fill="#f6f2ff"/><rect x="539" y="158" width="155" height="92" rx="13" fill="#fff6ed"/><text x="214" y="190" fill="#7b879b" font-size="10" font-family="Arial">STUDENTS</text><text x="214" y="224" fill="#172035" font-size="27" font-family="Arial" font-weight="700">1,248</text><text x="386" y="190" fill="#7b879b" font-size="10" font-family="Arial">COURSES</text><text x="386" y="224" fill="#172035" font-size="27" font-family="Arial" font-weight="700">42</text><text x="558" y="190" fill="#7b879b" font-size="10" font-family="Arial">ATTENDANCE</text><text x="558" y="224" fill="#172035" font-size="27" font-family="Arial" font-weight="700">94%</text></g><rect x="195" y="275" width="499" height="120" rx="14" fill="#f8fafc"/><text x="214" y="305" fill="#172035" font-size="12" font-family="Arial" font-weight="700">Recent enrollments</text><g fill="#dbe3ee"><rect x="214" y="326" width="460" height="8" rx="4"/><rect x="214" y="349" width="390" height="8" rx="4"/><rect x="214" y="372" width="425" height="8" rx="4"/></g></svg>
